<?xml version="1.0" standalone="no"?>
<!DOCTYPE svg PUBLIC "-//W3C//DTD SVG 20010904//EN"
"http://www.w3.org/TR/2001/REC-SVG-20010904/DTD/svg10.dtd">
<svg version="1.0" xmlns="http://www.w3.org/2000/svg"
width="512.000000pt" height="512.000000pt" viewBox="0 0 512.000000 512.000000"
preserveAspectRatio="xMidYMid meet">

<g transform="translate(0.000000,512.000000) scale(0.100000,-0.100000)"
fill="#FF1E1E" stroke="none">
<path d="M635 5105 c-154 -34 -271 -100 -391 -219 -101 -101 -156 -188 -202
-321 l-27 -80 0 -1925 0 -1925 27 -80 c46 -132 101 -220 202 -321 101 -101
189 -156 321 -202 l80 -27 1170 0 1170 0 80 27 c132 46 220 101 321 202 102
102 157 190 201 321 27 79 27 85 31 388 3 300 3 309 -18 353 -14 28 -38 56
-63 72 -35 23 -51 27 -117 27 -66 0 -82 -4 -117 -27 -24 -16 -49 -44 -62 -70
-19 -41 -21 -61 -21 -259 0 -118 -5 -245 -10 -284 -26 -182 -163 -319 -345
-345 -94 -13 -2006 -13 -2100 0 -182 26 -319 163 -345 345 -13 96 -13 3514 0
3610 26 182 163 319 345 345 94 13 2006 13 2100 0 182 -26 319 -163 345 -345
5 -38 10 -166 10 -284 0 -198 2 -218 21 -259 13 -26 38 -54 62 -70 35 -23 51
-27 117 -27 66 0 82 4 117 27 25 16 49 44 63 72 21 44 21 53 18 353 -4 303 -4
309 -31 388 -44 131 -99 219 -201 321 -101 101 -189 156 -321 202 l-80 27
-1145 2 c-921 1 -1157 -1 -1205 -12z"/>
<path d="M4305 3393 c-98 -51 -140 -162 -100 -261 10 -23 80 -101 188 -209
l172 -173 -1224 0 -1225 0 -44 -21 c-26 -13 -54 -38 -70 -62 -23 -35 -27 -51
-27 -117 0 -66 4 -82 27 -117 16 -24 44 -49 70 -62 l44 -21 1225 0 1224 0
-172 -172 c-108 -109 -178 -187 -188 -210 -29 -71 -13 -162 38 -216 57 -62
170 -81 245 -43 20 11 154 138 298 283 230 232 265 271 295 333 l34 70 0 155
0 155 -34 70 c-30 62 -65 101 -295 333 -144 145 -278 272 -298 283 -46 24
-140 25 -183 2z"/>
</g>
</svg>
