<?xml version="1.0" standalone="yes"?>
<svg xmlns="http://www.w3.org/2000/svg" width="700" height="700">
<path style="fill:#fffefd; stroke:none;" d="M0 0L0 700L312 700L312 699C246.212 699 175.319 688.529 114 664C89.2412 654.096 59.3909 640.1 46.8102 615C35.4288 592.293 45.96 561.221 47 537C64.9362 552.297 87.1504 562.182 109 570.424C169.539 593.258 240.692 599.777 305 596.961C342.742 595.308 381.259 588.564 419 592.17C435.754 593.771 456.292 597.601 467.787 611.004C478.32 623.284 474.517 659.118 501 650.146C516.354 644.944 512.931 625.395 514.171 613C515.552 599.187 522.12 585.749 530.666 575C546.895 554.586 570.544 546.981 593 535.753C611.279 526.614 627.045 515.204 644 504C646.65 515.133 645.901 527.58 647.286 539C650.005 561.436 658.581 585.263 648.961 607C636.881 634.293 607.215 650.982 581 662.15C519.502 688.347 447.521 699 381 699L381 700L700 700L700 0L0 0z"/>
<path style="fill:#a2e3c0; stroke:none;" d="M199 1L199 2L226 2L199 1M227 1L228 2L227 1M186 2L186 3L195 3L186 2z"/>
<path style="fill:#5eb88a; stroke:none;" d="M195 2L195 3L204 3L195 2z"/>
<path style="fill:#029e4b; stroke:none;" d="M204 2.42438C194.384 3.68701 184.656 3.78497 175 5.13037C172.309 5.50525 166.845 5.32507 165.067 7.74231C162.881 10.7133 165.817 17.8264 166.63 21C170.046 34.3499 174.716 47.3468 180.15 60C200.637 107.696 250.315 163.203 308 155.711C358.164 149.195 379.4 94.8733 347.535 56C315.915 17.4242 253.443 -4.0675 204 2.42438z"/>
<path style="fill:#5eb88a; stroke:none;" d="M219.667 2.33331L220.333 2.66669L219.667 2.33331M222 2L223 3L222 2M224 2L224 3L231 3L224 2z"/>
<path style="fill:#a2e3c0; stroke:none;" d="M231 2L231 3L240 3L231 2M178 3L178 4L184 4L178 3z"/>
<path style="fill:#5eb88a; stroke:none;" d="M184 3L184 4L189 4L184 3M236 3L236 4L241 4L236 3z"/>
<path style="fill:#a2e3c0; stroke:none;" d="M241 3L241 4L246 4L241 3M171 4L171 5L175 5L171 4z"/>
<path style="fill:#5eb88a; stroke:none;" d="M175 4L175 5L180 5L175 4M245 4L245 5L248 5L245 4z"/>
<path style="fill:#a2e3c0; stroke:none;" d="M248 4L248 5L253 5L248 4M165 5L165 6L168 6L165 5z"/>
<path style="fill:#5eb88a; stroke:none;" d="M168 5L168 6L173 6L168 5M251 5L251 6L255 6L251 5z"/>
<path style="fill:#a2e3c0; stroke:none;" d="M255 5L255 6L258 6L255 5M163 6L164 7L163 6z"/>
<path style="fill:#5eb88a; stroke:none;" d="M164.667 6.33331L165.333 6.66669L164.667 6.33331M257 6L257 7L260 7L257 6z"/>
<path style="fill:#a2e3c0; stroke:none;" d="M260 6L260 7L263 7L260 6z"/>
<path style="fill:#5eb88a; stroke:none;" d="M163.333 7.66669L163.667 8.33331L163.333 7.66669M262.667 7.33331L263.333 7.66669L262.667 7.33331z"/>
<path style="fill:#a2e3c0; stroke:none;" d="M264 7L264 8L267 8L264 7z"/>
<path style="fill:#5eb88a; stroke:none;" d="M266 8L266 9L269 9L266 8z"/>
<path style="fill:#a2e3c0; stroke:none;" d="M269.667 8.33331L270.333 8.66669L269.667 8.33331M163 9L163 12L164 12L163 9z"/>
<path style="fill:#5eb88a; stroke:none;" d="M270.667 9.33331L271.333 9.66669L270.667 9.33331z"/>
<path style="fill:#a2e3c0; stroke:none;" d="M272.667 9.33331L273.333 9.66669L272.667 9.33331z"/>
<path style="fill:#5eb88a; stroke:none;" d="M274.667 10.3333L275.333 10.6667L274.667 10.3333z"/>
<path style="fill:#a2e3c0; stroke:none;" d="M276.667 10.3333L277.333 10.6667L276.667 10.3333z"/>
<path style="fill:#5eb88a; stroke:none;" d="M164 11L164 14L165 14L164 11M277.667 11.3333L278.333 11.6667L277.667 11.3333z"/>
<path style="fill:#a2e3c0; stroke:none;" d="M279.667 11.3333L280.333 11.6667L279.667 11.3333z"/>
<path style="fill:#5eb88a; stroke:none;" d="M280.667 12.3333L281.333 12.6667L280.667 12.3333z"/>
<path style="fill:#a2e3c0; stroke:none;" d="M282.667 12.3333L283.333 12.6667L282.667 12.3333z"/>
<path style="fill:#5eb88a; stroke:none;" d="M283.667 13.3333L284.333 13.6667L283.667 13.3333z"/>
<path style="fill:#a2e3c0; stroke:none;" d="M285 13L286 14L285 13M164 14L164 17L165 17L164 14z"/>
<path style="fill:#5eb88a; stroke:none;" d="M286.667 14.3333L287.333 14.6667L286.667 14.3333z"/>
<path style="fill:#a2e3c0; stroke:none;" d="M288 14L289 15L288 14z"/>
<path style="fill:#5eb88a; stroke:none;" d="M289 15L290 16L289 15z"/>
<path style="fill:#a2e3c0; stroke:none;" d="M290.667 15.3333L291.333 15.6667L290.667 15.3333z"/>
<path style="fill:#5eb88a; stroke:none;" d="M165.333 16.6667L165.667 17.3333L165.333 16.6667M292 16L293 17L292 16z"/>
<path style="fill:#a2e3c0; stroke:none;" d="M293 16L294 17L293 16z"/>
<path style="fill:#5eb88a; stroke:none;" d="M294 17L295 18L294 17z"/>
<path style="fill:#a2e3c0; stroke:none;" d="M295 17L296 18L295 17M165.333 18.6667L165.667 19.3333L165.333 18.6667z"/>
<path style="fill:#5eb88a; stroke:none;" d="M296 18L297 19L296 18z"/>
<path style="fill:#a2e3c0; stroke:none;" d="M297.667 18.3333L298.333 18.6667L297.667 18.3333z"/>
<path style="fill:#5eb88a; stroke:none;" d="M298.667 19.3333L299.333 19.6667L298.667 19.3333z"/>
<path style="fill:#a2e3c0; stroke:none;" d="M300 19L301 20L300 19z"/>
<path style="fill:#5eb88a; stroke:none;" d="M166.333 20.6667L166.667 21.3333L166.333 20.6667M301 20L302 21L301 20z"/>
<path style="fill:#a2e3c0; stroke:none;" d="M302 20L303 21L302 20z"/>
<path style="fill:#5eb88a; stroke:none;" d="M303 21L304 22L303 21z"/>
<path style="fill:#a2e3c0; stroke:none;" d="M304 21L305 22L304 21M166.333 22.6667L166.667 23.3333L166.333 22.6667z"/>
<path style="fill:#5eb88a; stroke:none;" d="M305 22L305 23L309 25L309 24L305 22z"/>
<path style="fill:#a2e3c0; stroke:none;" d="M306 22L307 23L306 22M308 23L309 24L308 23z"/>
<path style="fill:#5eb88a; stroke:none;" d="M167.333 24.6667L167.667 25.3333L167.333 24.6667z"/>
<path style="fill:#a2e3c0; stroke:none;" d="M309 24L309 25L314 27L314 26L309 24z"/>
<path style="fill:#5eb88a; stroke:none;" d="M310 25L311 26L310 25z"/>
<path style="fill:#a2e3c0; stroke:none;" d="M167.333 26.6667L167.667 27.3333L167.333 26.6667z"/>
<path style="fill:#5eb88a; stroke:none;" d="M312 26L313 27L312 26M168.333 27.6667L168.667 28.3333L168.333 27.6667M313 27L313 28L316 29L313 27z"/>
<path style="fill:#a2e3c0; stroke:none;" d="M315 27L316 28L315 27M316 28L316 29L319 30L316 28M168 29L169 35L170 35L168 29z"/>
<path style="fill:#5eb88a; stroke:none;" d="M317 29L318 30L317 29M318 30L318 31L321 32L318 30z"/>
<path style="fill:#a2e3c0; stroke:none;" d="M320 30L321 31L320 30z"/>
<path style="fill:#5eb88a; stroke:none;" d="M169 31L170 32L169 31z"/>
<path style="fill:#a2e3c0; stroke:none;" d="M321 31L322 32L321 31z"/>
<path style="fill:#5eb88a; stroke:none;" d="M322 32L325 35L322 32z"/>
<path style="fill:#a2e3c0; stroke:none;" d="M323 32L324 33L323 32M324 33L325 34L324 33z"/>
<path style="fill:#5eb88a; stroke:none;" d="M170.333 34.6667L170.667 35.3333L170.333 34.6667z"/>
<path style="fill:#a2e3c0; stroke:none;" d="M325 34L326 35L325 34z"/>
<path style="fill:#5eb88a; stroke:none;" d="M326 35L329 38L326 35z"/>
<path style="fill:#a2e3c0; stroke:none;" d="M327 35L328 36L327 35M170.333 36.6667L170.667 37.3333L170.333 36.6667M328 36L329 37L328 36z"/>
<path style="fill:#5eb88a; stroke:none;" d="M171.333 37.6667L171.667 38.3333L171.333 37.6667z"/>
<path style="fill:#a2e3c0; stroke:none;" d="M329 37L330 38L329 37z"/>
<path style="fill:#5eb88a; stroke:none;" d="M330 38L331 39L330 38z"/>
<path style="fill:#a2e3c0; stroke:none;" d="M171.333 39.6667L171.667 40.3333L171.333 39.6667z"/>
<path style="fill:#5eb88a; stroke:none;" d="M331 39L335 43L331 39z"/>
<path style="fill:#a2e3c0; stroke:none;" d="M332 39L333 40L332 39z"/>
<path style="fill:#5eb88a; stroke:none;" d="M172.333 40.6667L172.667 41.3333L172.333 40.6667z"/>
<path style="fill:#a2e3c0; stroke:none;" d="M333 40L334 41L333 40M334 41L335 42L334 41M172.333 42.6667L172.667 43.3333L172.333 42.6667M335 42L336 43L335 42z"/>
<path style="fill:#5eb88a; stroke:none;" d="M173 43L174 47L175 47L173 43z"/>
<path style="fill:#a2e3c0; stroke:none;" d="M336 43L348 55L336 43z"/>
<path style="fill:#5eb88a; stroke:none;" d="M336 44L337 45L336 44z"/>
<path style="fill:#a2e3c0; stroke:none;" d="M173.333 45.6667L173.667 46.3333L173.333 45.6667z"/>
<path style="fill:#5eb88a; stroke:none;" d="M337 45L338 46L337 45M338 46L339 47L338 46z"/>
<path style="fill:#a2e3c0; stroke:none;" d="M479 46L479 47L510 47L479 46M174.333 47.6667L174.667 48.3333L174.333 47.6667z"/>
<path style="fill:#5eb88a; stroke:none;" d="M339 47L340 48L339 47z"/>
<path style="fill:#a2e3c0; stroke:none;" d="M470 47L470 48L475 48L470 47z"/>
<path style="fill:#5eb88a; stroke:none;" d="M475 47L475 48L481 48L475 47z"/>
<path style="fill:#029e4b; stroke:none;" d="M529 50C507.939 48.3376 488.139 45.5198 467 49.0811C453.356 51.3796 439.192 55.1648 427 61.865C410.879 70.7244 395.093 83.9987 389.09 102C379.822 129.794 402.943 154.091 430 155.911C462.447 158.093 491.677 131.536 507.575 106C518.245 88.86 525.167 69.7654 529 50z"/>
<path style="fill:#5eb88a; stroke:none;" d="M506 47L506 48L512 48L506 47z"/>
<path style="fill:#a2e3c0; stroke:none;" d="M512 47L512 48L518 48L512 47z"/>
<path style="fill:#5eb88a; stroke:none;" d="M175.333 48.6667L175.667 49.3333L175.333 48.6667M340 48L341 49L340 48z"/>
<path style="fill:#a2e3c0; stroke:none;" d="M464 48L464 49L468 49L464 48z"/>
<path style="fill:#5eb88a; stroke:none;" d="M468 48L468 49L471 49L468 48M517 48L517 49L520 49L517 48z"/>
<path style="fill:#a2e3c0; stroke:none;" d="M520 48L520 49L525 49L520 48z"/>
<path style="fill:#5eb88a; stroke:none;" d="M341 49L342 50L341 49z"/>
<path style="fill:#a2e3c0; stroke:none;" d="M459 49L459 50L462 50L459 49z"/>
<path style="fill:#5eb88a; stroke:none;" d="M462 49L462 50L465 50L462 49M524 49L524 50L527 50L524 49z"/>
<path style="fill:#a2e3c0; stroke:none;" d="M527.667 49.3333L528.333 49.6667L527.667 49.3333M175.333 50.6667L175.667 51.3333L175.333 50.6667z"/>
<path style="fill:#5eb88a; stroke:none;" d="M342 50L343 51L342 50z"/>
<path style="fill:#a2e3c0; stroke:none;" d="M455 50L455 51L458 51L455 50z"/>
<path style="fill:#5eb88a; stroke:none;" d="M458.667 50.3333L459.333 50.6667L458.667 50.3333M529 50L530 51L529 50M176 51L177 55L178 55L176 51M343 51L344 52L343 51z"/>
<path style="fill:#a2e3c0; stroke:none;" d="M451.667 51.3333L452.333 51.6667L451.667 51.3333z"/>
<path style="fill:#5eb88a; stroke:none;" d="M453 51L453 52L456 52L453 51z"/>
<path style="fill:#a2e3c0; stroke:none;" d="M529 51L529 54L530 54L529 51z"/>
<path style="fill:#5eb88a; stroke:none;" d="M344 52L345 53L344 52z"/>
<path style="fill:#a2e3c0; stroke:none;" d="M448.667 52.3333L449.333 52.6667L448.667 52.3333z"/>
<path style="fill:#5eb88a; stroke:none;" d="M450.667 52.3333L451.333 52.6667L450.667 52.3333M528 52L528 56L529 56L528 52z"/>
<path style="fill:#a2e3c0; stroke:none;" d="M176.333 53.6667L176.667 54.3333L176.333 53.6667z"/>
<path style="fill:#5eb88a; stroke:none;" d="M345 53L346 54L345 53z"/>
<path style="fill:#a2e3c0; stroke:none;" d="M444.667 53.3333L445.333 53.6667L444.667 53.3333z"/>
<path style="fill:#5eb88a; stroke:none;" d="M446.667 53.3333L447.333 53.6667L446.667 53.3333M346 54L347 55L346 54z"/>
<path style="fill:#a2e3c0; stroke:none;" d="M442 54L443 55L442 54z"/>
<path style="fill:#5eb88a; stroke:none;" d="M443.667 54.3333L444.333 54.6667L443.667 54.3333z"/>
<path style="fill:#a2e3c0; stroke:none;" d="M177 55L178 59L179 59L177 55z"/>
<path style="fill:#5eb88a; stroke:none;" d="M347 55L348 56L347 55z"/>
<path style="fill:#a2e3c0; stroke:none;" d="M439.667 55.3333L440.333 55.6667L439.667 55.3333z"/>
<path style="fill:#5eb88a; stroke:none;" d="M441 55L442 56L441 55M178 56L179 57L178 56z"/>
<path style="fill:#a2e3c0; stroke:none;" d="M348 56L351 59L348 56M434 57L434 58L438 57L434 57z"/>
<path style="fill:#5eb88a; stroke:none;" d="M438.667 56.3333L439.333 56.6667L438.667 56.3333z"/>
<path style="fill:#a2e3c0; stroke:none;" d="M528.333 56.6667L528.667 57.3333L528.333 56.6667z"/>
<path style="fill:#5eb88a; stroke:none;" d="M348 57L349 58L348 57M436 57L437 58L436 57M527 57L527 60L528 60L527 57M179 58L180 62L181 62L179 58M349 58L350 59L349 58z"/>
<path style="fill:#a2e3c0; stroke:none;" d="M432 58L433 59L432 58z"/>
<path style="fill:#5eb88a; stroke:none;" d="M433.667 58.3333L434.333 58.6667L433.667 58.3333M350 59L351 60L350 59z"/>
<path style="fill:#a2e3c0; stroke:none;" d="M430 59L431 60L430 59z"/>
<path style="fill:#5eb88a; stroke:none;" d="M431 59L432 60L431 59z"/>
<path style="fill:#a2e3c0; stroke:none;" d="M179 60L180 61L179 60M351 60L353 62L351 60M428 60L429 61L428 60z"/>
<path style="fill:#5eb88a; stroke:none;" d="M429 60L430 61L429 60z"/>
<path style="fill:#a2e3c0; stroke:none;" d="M527.333 60.6667L527.667 61.3333L527.333 60.6667z"/>
<path style="fill:#5eb88a; stroke:none;" d="M351 61L352 62L351 61z"/>
<path style="fill:#a2e3c0; stroke:none;" d="M426 61L427 62L426 61z"/>
<path style="fill:#5eb88a; stroke:none;" d="M427 61L428 62L427 61M526 61L526 64L527 64L526 61z"/>
<path style="fill:#a2e3c0; stroke:none;" d="M180 62L181 63L180 62z"/>
<path style="fill:#5eb88a; stroke:none;" d="M352 62L353 63L352 62z"/>
<path style="fill:#a2e3c0; stroke:none;" d="M424 62L418 67L425 63L424 62z"/>
<path style="fill:#5eb88a; stroke:none;" d="M425 62L426 63L425 62M181 63L182 64L181 63z"/>
<path style="fill:#a2e3c0; stroke:none;" d="M353 63L355 65L353 63z"/>
<path style="fill:#5eb88a; stroke:none;" d="M424 63L425 64L424 63z"/>
<path style="fill:#a2e3c0; stroke:none;" d="M181 64L183 69L184 69L181 64z"/>
<path style="fill:#5eb88a; stroke:none;" d="M353 64L354 65L353 64M422 64L423 65L422 64z"/>
<path style="fill:#a2e3c0; stroke:none;" d="M526.333 64.6667L526.667 65.3333L526.333 64.6667z"/>
<path style="fill:#5eb88a; stroke:none;" d="M182 65L183 66L182 65M354 65L356 68L354 65M420 65L421 66L420 65M525.333 65.6667L525.667 66.3333L525.333 65.6667z"/>
<path style="fill:#a2e3c0; stroke:none;" d="M355 66L356 67L355 66z"/>
<path style="fill:#5eb88a; stroke:none;" d="M419 66L420 67L419 66M183 67L184 68L183 67z"/>
<path style="fill:#a2e3c0; stroke:none;" d="M416 67L411 72L417 68L416 67z"/>
<path style="fill:#5eb88a; stroke:none;" d="M417 67L418 68L417 67z"/>
<path style="fill:#a2e3c0; stroke:none;" d="M525.333 67.6667L525.667 68.3333L525.333 67.6667M356 68L357 69L356 68z"/>
<path style="fill:#5eb88a; stroke:none;" d="M416 68L417 69L416 68M524.333 68.6667L524.667 69.3333L524.333 68.6667M184 69L185 72L186 72L184 69M356 69L359 77L360 77L356 69M414 69L415 70L414 69z"/>
<path style="fill:#a2e3c0; stroke:none;" d="M184 70L185 71L184 70M357 70L358 71L357 70z"/>
<path style="fill:#5eb88a; stroke:none;" d="M413 70L414 71L413 70z"/>
<path style="fill:#a2e3c0; stroke:none;" d="M524.333 70.6667L524.667 71.3333L524.333 70.6667z"/>
<path style="fill:#5eb88a; stroke:none;" d="M412 71L413 72L412 71M523.333 71.6667L523.667 72.3333L523.333 71.6667z"/>
<path style="fill:#a2e3c0; stroke:none;" d="M185 72L187 75L185 72M358 72L359 73L358 72M409 72L397 85L409 72z"/>
<path style="fill:#5eb88a; stroke:none;" d="M410 72L411 73L410 72M186 73L187 74L186 73M409 73L410 74L409 73z"/>
<path style="fill:#a2e3c0; stroke:none;" d="M523.333 73.6667L523.667 74.3333L523.333 73.6667M359 74L360 75L359 74z"/>
<path style="fill:#5eb88a; stroke:none;" d="M408 74L409 75L408 74M522.333 74.6667L522.667 75.3333L522.333 74.6667M187 75L189 79L190 79L187 75M407 75L408 76L407 75z"/>
<path style="fill:#a2e3c0; stroke:none;" d="M187 76L188 77L187 76M360.333 76.6667L360.667 77.3333L360.333 76.6667z"/>
<path style="fill:#5eb88a; stroke:none;" d="M406 76L407 77L406 76z"/>
<path style="fill:#a2e3c0; stroke:none;" d="M522.333 76.6667L522.667 77.3333L522.333 76.6667z"/>
<path style="fill:#5eb88a; stroke:none;" d="M405 77L406 78L405 77M521.333 77.6667L521.667 78.3333L521.333 77.6667z"/>
<path style="fill:#a2e3c0; stroke:none;" d="M188 78L189 79L188 78z"/>
<path style="fill:#5eb88a; stroke:none;" d="M360.333 78.6667L360.667 79.3333L360.333 78.6667M404 78L405 79L404 78z"/>
<path style="fill:#a2e3c0; stroke:none;" d="M189 79L191 82L189 79M361.333 79.6667L361.667 80.3333L361.333 79.6667M521 79L522 80L521 79z"/>
<path style="fill:#5eb88a; stroke:none;" d="M190 80L191 81L190 80M402 80L403 81L402 80M520 80L521 81L520 80M361.333 81.6667L361.667 82.3333L361.333 81.6667M401 81L402 82L401 81z"/>
<path style="fill:#a2e3c0; stroke:none;" d="M520.333 81.6667L520.667 82.3333L520.333 81.6667z"/>
<path style="fill:#5eb88a; stroke:none;" d="M191 82L193 84L191 82z"/>
<path style="fill:#a2e3c0; stroke:none;" d="M362.333 82.6667L362.667 83.3333L362.333 82.6667z"/>
<path style="fill:#5eb88a; stroke:none;" d="M400 82L401 83L400 82M519 82L518 86L519 86L519 82z"/>
<path style="fill:#a2e3c0; stroke:none;" d="M191 83L192 84L191 83z"/>
<path style="fill:#5eb88a; stroke:none;" d="M399 83L400 84L399 83z"/>
<path style="fill:#a2e3c0; stroke:none;" d="M192 84L194 87L192 84z"/>
<path style="fill:#5eb88a; stroke:none;" d="M362 84L362 88L363 88L362 84M398 84L399 85L398 84z"/>
<path style="fill:#a2e3c0; stroke:none;" d="M519 84L520 85L519 84z"/>
<path style="fill:#5eb88a; stroke:none;" d="M193 85L194 86L193 85M397 85L391 96L392 96L397 85z"/>
<path style="fill:#a2e3c0; stroke:none;" d="M363 86L363 89L364 89L363 86M396 86L397 87L396 86M518 86L517 90L518 90L518 86M194 87L196 90L194 87M395 87L396 88L395 87z"/>
<path style="fill:#5eb88a; stroke:none;" d="M517 87L518 88L517 87M195 88L196 89L195 88z"/>
<path style="fill:#a2e3c0; stroke:none;" d="M394.333 88.6667L394.667 89.3333L394.333 88.6667z"/>
<path style="fill:#5eb88a; stroke:none;" d="M363 89L363 96L364 96L363 89M516 89L511 100L512 100L516 89M196 90L199 95L200 95L196 90z"/>
<path style="fill:#a2e3c0; stroke:none;" d="M393 90L394 91L393 90M196 91L197 92L196 91M516 91L517 92L516 91M197 92L198 93L197 92M364 92L364 105L365 105L364 92M392 92L393 93L392 92M391.333 93.6667L391.667 94.3333L391.333 93.6667M515 93L516 94L515 93M198 94L199 95L198 94M199 95L200 96L199 95M390.333 95.6667L390.667 96.3333L390.333 95.6667M514 95L515 96L514 95M200 96L203 100L200 96z"/>
<path style="fill:#5eb88a; stroke:none;" d="M201 97L202 98L201 97M390.333 97.6667L390.667 98.3333L390.333 97.6667z"/>
<path style="fill:#a2e3c0; stroke:none;" d="M513 97L514 98L513 97z"/>
<path style="fill:#5eb88a; stroke:none;" d="M202 98L203 99L202 98z"/>
<path style="fill:#a2e3c0; stroke:none;" d="M389 98L388 102L389 102L389 98M512 99L513 100L512 99z"/>
<path style="fill:#5eb88a; stroke:none;" d="M203 100L207 104L203 100M363 100L363 108L364 108L363 100M389 100L390 101L389 100z"/>
<path style="fill:#a2e3c0; stroke:none;" d="M511 100L510 103L511 100M203 101L204 102L203 101z"/>
<path style="fill:#5eb88a; stroke:none;" d="M510 101L511 102L510 101z"/>
<path style="fill:#a2e3c0; stroke:none;" d="M204 102L205 103L204 102z"/>
<path style="fill:#5eb88a; stroke:none;" d="M388.333 102.667L388.667 103.333L388.333 102.667M509 102L508 105L509 102z"/>
<path style="fill:#a2e3c0; stroke:none;" d="M205 103L206 104L205 103M387 103L387 106L388 106L387 103M206 104L212 111L206 104M509 104L510 105L509 104z"/>
<path style="fill:#5eb88a; stroke:none;" d="M207 105L208 106L207 105z"/>
<path style="fill:#a2e3c0; stroke:none;" d="M508 105L507 108L508 105z"/>
<path style="fill:#5eb88a; stroke:none;" d="M208 106L209 107L208 106M387 106L387 109L388 109L387 106M507 106L508 107L507 106M209 107L210 108L209 107z"/>
<path style="fill:#a2e3c0; stroke:none;" d="M386 107L386 114L387 114L386 107z"/>
<path style="fill:#5eb88a; stroke:none;" d="M506 107L504 112L505 112L506 107M210 108L211 109L210 108z"/>
<path style="fill:#a2e3c0; stroke:none;" d="M363 108L363 111L364 111L363 108z"/>
<path style="fill:#5eb88a; stroke:none;" d="M211 109L212 110L211 109M362 109L362 112L363 112L362 109z"/>
<path style="fill:#a2e3c0; stroke:none;" d="M506 109L507 110L506 109M505 110L506 111L505 110M212 111L213 112L212 111M213 112L224 124L213 112M362.333 112.667L362.667 113.333L362.333 112.667z"/>
<path style="fill:#5eb88a; stroke:none;" d="M503 112L502 114L503 112M214 113L215 114L214 113M361 113L359 120L360 120L361 113z"/>
<path style="fill:#a2e3c0; stroke:none;" d="M503 113L504 114L503 113z"/>
<path style="fill:#5eb88a; stroke:none;" d="M215 114L216 115L215 114M386 114L387 115L386 114z"/>
<path style="fill:#a2e3c0; stroke:none;" d="M502 114L503 115L502 114z"/>
<path style="fill:#5eb88a; stroke:none;" d="M216 115L217 116L216 115z"/>
<path style="fill:#a2e3c0; stroke:none;" d="M386 115L388 129L389 129L386 115z"/>
<path style="fill:#5eb88a; stroke:none;" d="M501 115L499 118L501 115M217 116L218 117L217 116z"/>
<path style="fill:#a2e3c0; stroke:none;" d="M361 116L362 117L361 116M501 116L502 117L501 116z"/>
<path style="fill:#5eb88a; stroke:none;" d="M218 117L219 118L218 117z"/>
<path style="fill:#a2e3c0; stroke:none;" d="M500 117L501 118L500 117z"/>
<path style="fill:#5eb88a; stroke:none;" d="M219 118L220 119L219 118z"/>
<path style="fill:#a2e3c0; stroke:none;" d="M360 118L361 119L360 118M499 118L500 119L499 118z"/>
<path style="fill:#5eb88a; stroke:none;" d="M220 119L221 120L220 119z"/>
<path style="fill:#a2e3c0; stroke:none;" d="M498 119L499 120L498 119z"/>
<path style="fill:#5eb88a; stroke:none;" d="M221 120L222 121L221 120z"/>
<path style="fill:#a2e3c0; stroke:none;" d="M359 120L358 123L359 120z"/>
<path style="fill:#5eb88a; stroke:none;" d="M387 120L387 123L388 123L387 120z"/>
<path style="fill:#a2e3c0; stroke:none;" d="M497 120L490 129L497 120z"/>
<path style="fill:#5eb88a; stroke:none;" d="M222 121L223 122L222 121M358 121L359 122L358 121M496 121L497 122L496 121M223 122L224 123L223 122M495 122L496 123L495 122M224 123L225 124L224 123M357 123L358 124L357 123M494 123L495 124L494 123z"/>
<path style="fill:#a2e3c0; stroke:none;" d="M225 124L231 130L225 124z"/>
<path style="fill:#5eb88a; stroke:none;" d="M226 124L227 125L226 124z"/>
<path style="fill:#a2e3c0; stroke:none;" d="M357 124L358 125L357 124z"/>
<path style="fill:#5eb88a; stroke:none;" d="M493 124L494 125L493 124M227 125L228 126L227 125M356 125L353 130L356 125M388.333 125.667L388.667 126.333L388.333 125.667M492 125L493 126L492 125M228 126L229 127L228 126z"/>
<path style="fill:#a2e3c0; stroke:none;" d="M356 126L357 127L356 126z"/>
<path style="fill:#5eb88a; stroke:none;" d="M491 126L492 127L491 126M229 127L230 128L229 127M490 127L491 128L490 127M230 128L231 129L230 128z"/>
<path style="fill:#a2e3c0; stroke:none;" d="M355 128L356 129L355 128z"/>
<path style="fill:#5eb88a; stroke:none;" d="M389 128L392 135L393 135L389 128M231 129L232 130L231 129z"/>
<path style="fill:#a2e3c0; stroke:none;" d="M354 129L355 130L354 129M489 129L490 130L489 129M232 130L235 133L232 130z"/>
<path style="fill:#5eb88a; stroke:none;" d="M233 130L234 131L233 130z"/>
<path style="fill:#a2e3c0; stroke:none;" d="M353 130L342 143C345.993 140.187 353.111 135.241 353 130M389 130L390 131L389 130z"/>
<path style="fill:#5eb88a; stroke:none;" d="M488 130L489 131L488 130M234 131L235 132L234 131M352 131L353 132L352 131M486 131L481 137L486 131z"/>
<path style="fill:#a2e3c0; stroke:none;" d="M487 131L488 132L487 131z"/>
<path style="fill:#5eb88a; stroke:none;" d="M235 132L236 133L235 132M351 132L352 133L351 132z"/>
<path style="fill:#a2e3c0; stroke:none;" d="M390 132L391 133L390 132M486 132L487 133L486 132z"/>
<path style="fill:#5eb88a; stroke:none;" d="M236 133L237 134L236 133M350 133L351 134L350 133z"/>
<path style="fill:#a2e3c0; stroke:none;" d="M485 133L486 134L485 133M237 134L239 136L237 134z"/>
<path style="fill:#5eb88a; stroke:none;" d="M238 134L239 135L238 134M349 134L350 135L349 134z"/>
<path style="fill:#a2e3c0; stroke:none;" d="M391 134L392 135L391 134M484 134L485 135L484 134z"/>
<path style="fill:#5eb88a; stroke:none;" d="M239 135L240 136L239 135M348 135L349 136L348 135z"/>
<path style="fill:#a2e3c0; stroke:none;" d="M392 135L395 139L392 135M483 135L484 136L483 135M240 136L242 138L240 136z"/>
<path style="fill:#5eb88a; stroke:none;" d="M241 136L242 137L241 136M347 136L348 137L347 136M393 136L394 137L393 136z"/>
<path style="fill:#a2e3c0; stroke:none;" d="M482 136L483 137L482 136z"/>
<path style="fill:#5eb88a; stroke:none;" d="M242 137L243 138L242 137M346 137L347 138L346 137M394 137L395 138L394 137M479 137L477 140L479 137z"/>
<path style="fill:#a2e3c0; stroke:none;" d="M480.667 137.333L481.333 137.667L480.667 137.333M243 138L245 140L243 138z"/>
<path style="fill:#5eb88a; stroke:none;" d="M244 138L245 139L244 138M345 138L346 139L345 138z"/>
<path style="fill:#a2e3c0; stroke:none;" d="M479 138L480 139L479 138z"/>
<path style="fill:#5eb88a; stroke:none;" d="M245 139L245 140L255 145L255 144L245 139M344 139L345 140L344 139z"/>
<path style="fill:#a2e3c0; stroke:none;" d="M395 139L396 140L395 139M478 139L479 140L478 139M246 140L247 141L246 140z"/>
<path style="fill:#5eb88a; stroke:none;" d="M343 140L344 141L343 140M396 140L400 144L396 140z"/>
<path style="fill:#a2e3c0; stroke:none;" d="M476 140L477 141L476 140M247 141L248 142L247 141z"/>
<path style="fill:#5eb88a; stroke:none;" d="M342 141L343 142L342 141z"/>
<path style="fill:#a2e3c0; stroke:none;" d="M396 141L397 142L396 141z"/>
<path style="fill:#5eb88a; stroke:none;" d="M474 141L473 143L474 141z"/>
<path style="fill:#a2e3c0; stroke:none;" d="M475 141L476 142L475 141M249 142L250 143L249 142z"/>
<path style="fill:#5eb88a; stroke:none;" d="M341 142L342 143L341 142z"/>
<path style="fill:#a2e3c0; stroke:none;" d="M397 142L398 143L397 142M474 142L475 143L474 142M251 143L252 144L251 143z"/>
<path style="fill:#5eb88a; stroke:none;" d="M335 146L335 147L341 144L335 146z"/>
<path style="fill:#a2e3c0; stroke:none;" d="M398 143L399 144L398 143z"/>
<path style="fill:#5eb88a; stroke:none;" d="M471 143L472 144L471 143z"/>
<path style="fill:#a2e3c0; stroke:none;" d="M472 143L473 144L472 143M253 144L254 145L253 144M339 144L340 145L339 144z"/>
<path style="fill:#5eb88a; stroke:none;" d="M400 144L401 145L400 144M469 144L468 146L469 144z"/>
<path style="fill:#a2e3c0; stroke:none;" d="M470.667 144.333L471.333 144.667L470.667 144.333M255 145L256 146L255 145z"/>
<path style="fill:#5eb88a; stroke:none;" d="M256 145L257 146L256 145z"/>
<path style="fill:#a2e3c0; stroke:none;" d="M338 145L339 146L338 145z"/>
<path style="fill:#5eb88a; stroke:none;" d="M401 145L402 146L401 145z"/>
<path style="fill:#a2e3c0; stroke:none;" d="M469 145L470 146L469 145M257 146L258 147L257 146z"/>
<path style="fill:#5eb88a; stroke:none;" d="M258 146L258 147L262 148L262 147L258 146z"/>
<path style="fill:#a2e3c0; stroke:none;" d="M336 146L337 147L336 146M402 146L405 149L402 146z"/>
<path style="fill:#5eb88a; stroke:none;" d="M403 146L404 147L403 146M466 146L467 147L466 146z"/>
<path style="fill:#a2e3c0; stroke:none;" d="M467 146L468 147L467 146M259 147L260 148L259 147z"/>
<path style="fill:#5eb88a; stroke:none;" d="M333 147L327 150L327 151L334 148L333 147z"/>
<path style="fill:#a2e3c0; stroke:none;" d="M334.667 147.333L335.333 147.667L334.667 147.333z"/>
<path style="fill:#5eb88a; stroke:none;" d="M404 147L405 148L404 147M464 147L465 148L464 147z"/>
<path style="fill:#a2e3c0; stroke:none;" d="M465 147L466 148L465 147M261 148L261 149L265 150L265 149L261 148z"/>
<path style="fill:#5eb88a; stroke:none;" d="M263 148L264 149L263 148z"/>
<path style="fill:#a2e3c0; stroke:none;" d="M333 148L334 149L333 148z"/>
<path style="fill:#5eb88a; stroke:none;" d="M405 148L405 149L408 150L405 148M462 148L463 149L462 148z"/>
<path style="fill:#a2e3c0; stroke:none;" d="M463 148L464 149L463 148z"/>
<path style="fill:#5eb88a; stroke:none;" d="M265.667 149.333L266.333 149.667L265.667 149.333z"/>
<path style="fill:#a2e3c0; stroke:none;" d="M331 149L332 150L331 149M406 149L407 150L406 149z"/>
<path style="fill:#5eb88a; stroke:none;" d="M460 149L461 150L460 149z"/>
<path style="fill:#a2e3c0; stroke:none;" d="M461.667 149.333L462.333 149.667L461.667 149.333M266.667 150.333L267.333 150.667L266.667 150.333z"/>
<path style="fill:#5eb88a; stroke:none;" d="M268 150L269 151L268 150z"/>
<path style="fill:#a2e3c0; stroke:none;" d="M329 150L330 151L329 150M408 150L408 151L413 153L413 152L408 150z"/>
<path style="fill:#5eb88a; stroke:none;" d="M409 150L410 151L409 150M457.667 150.333L458.333 150.667L457.667 150.333z"/>
<path style="fill:#a2e3c0; stroke:none;" d="M459 150L460 151L459 150M269 151L270 152L269 151z"/>
<path style="fill:#5eb88a; stroke:none;" d="M270.667 151.333L271.333 151.667L270.667 151.333M325 151L326 152L325 151z"/>
<path style="fill:#a2e3c0; stroke:none;" d="M326.667 151.333L327.333 151.667L326.667 151.333z"/>
<path style="fill:#5eb88a; stroke:none;" d="M411 151L412 152L411 151M455 151L456 152L455 151z"/>
<path style="fill:#a2e3c0; stroke:none;" d="M456.667 151.333L457.333 151.667L456.667 151.333M271 152L271 153L274 153L271 152z"/>
<path style="fill:#5eb88a; stroke:none;" d="M274.667 152.333L275.333 152.667L274.667 152.333M322.667 152.333L323.333 152.667L322.667 152.333z"/>
<path style="fill:#a2e3c0; stroke:none;" d="M324 152L325 153L324 152z"/>
<path style="fill:#5eb88a; stroke:none;" d="M413 152L414 153L413 152M452.667 152.333L453.333 152.667L452.667 152.333z"/>
<path style="fill:#a2e3c0; stroke:none;" d="M454.667 152.333L455.333 152.667L454.667 152.333M275.667 153.333L276.333 153.667L275.667 153.333z"/>
<path style="fill:#5eb88a; stroke:none;" d="M277.667 153.333L278.333 153.667L277.667 153.333M319.667 153.333L320.333 153.667L319.667 153.333z"/>
<path style="fill:#a2e3c0; stroke:none;" d="M321.667 153.333L322.333 153.667L321.667 153.333M414 153L414 154L419 155L419 154L414 153z"/>
<path style="fill:#5eb88a; stroke:none;" d="M416 153L417 154L416 153M449.667 153.333L450.333 153.667L449.667 153.333z"/>
<path style="fill:#a2e3c0; stroke:none;" d="M451.667 153.333L452.333 153.667L451.667 153.333M279 154L279 155L282 155L279 154z"/>
<path style="fill:#5eb88a; stroke:none;" d="M282.667 154.333L283.333 154.667L282.667 154.333M314 154L314 155L317 155L314 154z"/>
<path style="fill:#a2e3c0; stroke:none;" d="M317.667 154.333L318.333 154.667L317.667 154.333z"/>
<path style="fill:#5eb88a; stroke:none;" d="M419.667 154.333L420.333 154.667L419.667 154.333M444 154L444 155L447 155L444 154z"/>
<path style="fill:#a2e3c0; stroke:none;" d="M447.667 154.333L448.333 154.667L447.667 154.333M283 155L283 156L287 156L283 155z"/>
<path style="fill:#5eb88a; stroke:none;" d="M287 155L287 156L290 156L287 155M309 155L309 156L312 156L309 155z"/>
<path style="fill:#a2e3c0; stroke:none;" d="M312 155L312 156L316 156L312 155M420 155L420 156L424 156L420 155z"/>
<path style="fill:#5eb88a; stroke:none;" d="M424 155L424 156L427 156L424 155M438 155L438 156L442 156L438 155z"/>
<path style="fill:#a2e3c0; stroke:none;" d="M442 155L442 156L445 156L442 155M290 156L290 157L309 157L290 156M426 156L426 157L438 157L426 156M344 188L344 189L350 189L344 188z"/>
<path style="fill:#d18a36; stroke:none;" d="M350 188.424C330.279 191.014 309.864 190.272 290 192.17C233.077 197.609 172.201 205.314 120 230.223C89.904 244.584 55.6141 266.133 53.0895 303C50.3281 343.324 101.114 364.761 132 376.047C220.333 408.326 324.782 408.892 417 397.715C479.513 390.138 545.425 376.562 600 343.8C624.723 328.959 652.008 305.004 646.674 273C641.475 241.804 605.34 224.518 579 214.576C532.211 196.916 482.393 192.293 433 188.91C406.496 187.096 376.415 184.956 350 188.424z"/>
<path style="fill:#a2e3c0; stroke:none;" d="M429 188L430 189L429 188M325 189L325 190L328 190L325 189M446.667 189.333L447.333 189.667L446.667 189.333M311 190L312 191L311 190M459.667 190.333L460.333 190.667L459.667 190.333M297 191L297 192L300 192L297 191M469 191L469 192L472 192L469 191M286.667 192.333L287.333 192.667L286.667 192.333M276.667 193.333L277.333 193.667L276.667 193.333M487 193L488 194L487 193M267 194L268 195L267 194M495 194L496 195L495 194M258 195L258 196L261 196L258 195M501.667 195.333L502.333 195.667L501.667 195.333M251 196L252 197L251 196M508 196L509 197L508 196M243.667 197.333L244.333 197.667L243.667 197.333M513.667 197.333L514.333 197.667L513.667 197.333M236 198L237 199L236 198M519.667 198.333L520.333 198.667L519.667 198.333M229 199L229 200L232 200L229 199M525 199L526 200L525 199M224 200L225 201L224 200M218 201L219 202L218 201M534 201L535 202L534 201M213 202L214 203L213 202M538 202L539 203L538 202M208 203L209 204L208 203M542.667 203.333L543.333 203.667L542.667 203.333M546 204L547 205L546 204M198 205L199 206L198 205M550 205L551 206L550 205M193 206L194 207L193 206M554 206L555 207L554 206M189 207L190 208L189 207M557 207L558 208L557 207M185 208L186 209L185 208M181 209L182 210L181 209M564 209L565 210L564 209M177 210L178 211L177 210M567 210L568 211L567 210M173 211L174 212L173 211M570 211L571 212L570 211M573 212L574 213L573 212M166 213L167 214L166 213M578 214L579 215L578 214M581 215L582 216L581 215M156 216L157 217L156 216M153 217L154 218L153 217M150 218L151 219L150 218M588 218L589 219L588 218M147 219L148 220L147 219M144 220L145 221L144 220M593 220L594 221L593 220M141 221L142 222L141 221M595 221L596 222L595 221M138 222L139 223L138 222M597 222L598 223L597 222M136 223L137 224L136 223M599 223L600 224L599 223M133 224L134 225L133 224M601 224L602 225L601 224M603 225L604 226L603 225M128 226L129 227L128 226M605 226L606 227L605 226M121 229L122 230L121 229M610 229L611 230L610 229M119 230L120 231L119 230M117 231L118 232L117 231M613 231L614 232L613 231M615 232L616 233L615 232M113 233L114 234L113 233M616 233L617 234L616 233M111 234L112 235L111 234M109 235L110 236L109 235M619 235L620 236L619 235M107 236L108 237L107 236M105 237L106 238L105 237M623 238L624 239L623 238M624 239L625 240L624 239M100 240L101 241L100 240M95 243L96 244L95 243M92 245L93 246L92 245M89 247L90 248L89 247M85 250L86 251L85 250M635 250L636 251L635 250M636 251L637 252L636 251M81 253L82 254L81 253M80 254L81 255L80 254M638 254L639 255L638 254M79 255L80 256L79 255M640 257L641 258L640 257M641 259L642 260L641 259M644 265L645 266L644 265M68 266L69 267L68 266M67 267L68 268L67 267M645 268L646 269L645 268M62 274L63 275L62 274M61 276L62 277L61 276M647 278L647 286L648 286L647 278M57 284L58 285L57 284M56 286L57 287L56 286M55 289L56 290L55 289M646 291L647 292L646 291M54 293L55 294L54 293M645.333 294.667L645.667 295.333L645.333 294.667M53.3333 298.667L53.6667 299.333L53.3333 298.667M643 300L644 301L643 300M642 302L643 303L642 302M641 304L642 305L641 304M638 309L639 310L638 309M53 312L54 313L53 312M636 312L637 313L636 312M635 313L636 314L635 313M54 316L55 317L54 316M632 317L633 318L632 317M631 318L632 319L631 318M55 319L56 320L55 319M630 319L631 320L630 319M629 320L630 321L629 320M56 322L57 323L56 322M625 324L626 325L625 324M624 325L625 326L624 325M58 326L59 327L58 326M623 326L624 327L623 326M622 327L623 328L622 327M60 329L61 330L60 329M61 331L62 332L61 331M617 331L618 332L617 331M62 332L63 333L62 332M616 332L617 333L616 332M613 334L614 335L613 334M612 335L613 336L612 335M65 336L66 337L65 336M66 337L67 338L66 337M609 337L610 338L609 337M67 338L68 339L67 338M70 341L71 342L70 341M603 341L604 342L603 341M71 342L72 343L71 342M72 343L73 344L72 343M600 343L601 344L600 343M73 344L74 345L73 344M598 344L599 345L598 344M74 345L75 346L74 345M75 346L76 347L75 346M595 346L596 347L595 346M593 347L594 348L593 347M78 348L79 349L78 348M82 351L83 352L82 351M85 353L86 354L85 353M86 354L87 355L86 354M93 358L94 359L93 358M571 358L572 359L571 358M569 359L570 360L569 359M96 360L97 361L96 360M567 360L568 361L567 360M98 361L99 362L98 361M647 363L650 362L647 363M100 362L101 363L100 362M562 362L563 363L562 362z"/>
<path style="fill:#d18a36; stroke:none;" d="M650 362C642.87 364.276 637.178 369.903 631 373.996C620.5 380.953 609.456 387.431 598 392.691C556.113 411.925 511.398 424.253 466 431.919C426.406 438.605 386.095 443.003 346 443.985C323.555 444.535 294.197 438.624 273 446.927C242.347 458.934 236.034 496.028 247.257 524C259.632 554.842 284.816 558 314 558C342.061 558 370.215 555.275 398 551.271C461.574 542.11 529.515 528.335 586 496.424C609.368 483.223 634.07 467.151 645.88 442C651.467 430.104 650.153 419.568 650.004 407C649.826 392.005 650 376.997 650 362z"/>
<path style="fill:#a2e3c0; stroke:none;" d="M102 363L103 364L102 363M104 364L105 365L104 364M557 364L558 365L557 364M644 364L645 365L644 364M106 365L107 366L106 365M554 365L555 366L554 365M108 366L109 367L108 366M110 367L111 368L110 367M549 367L550 368L549 367M640 367L641 368L640 367M546 368L547 369L546 368M115 369L116 370L115 369M636 370L637 371L636 370M633 372L634 373L633 372M125 373L126 374L125 373M127 374L128 375L127 374M528 374L529 375L528 374M630 374L631 375L630 374M130 375L131 376L130 375M133 376L134 377L133 376M522 376L523 377L522 376M627 376L628 377L627 376M139 378L140 379L139 378M515 378L516 379L515 378M142 379L143 380L142 379M622 379L623 380L622 379z"/>
<path style="fill:#d18a36; stroke:none;" d="M48 380C47.9977 400.955 45.3432 422.098 43.9105 443C43.2317 452.903 41.6514 463.256 44.429 473C55.8141 512.942 106.047 531.458 142 541.151C154.157 544.429 170.767 551.061 183 545.637C195.53 540.081 200.805 525.541 202.919 513C207.724 484.489 198.275 452.027 174 434.913C156.935 422.882 133.353 421.042 114 413.947C90.069 405.173 70.4432 391.165 48 380z"/>
<path style="fill:#a2e3c0; stroke:none;" d="M145 380L146 381L145 380M508 380L509 381L508 380M148 381L149 382L148 381M504 381L505 382L504 381M619 381L620 382L619 381M52 382L53 383L52 382M500 382L501 383L500 382M617 382L618 383L617 382M53 383L54 384L53 383M496 383L497 384L496 383M159 384L160 385L159 384M492 384L493 385L492 384M56 385L57 386L56 385M163 385L164 386L163 385M488 385L489 386L488 385M167 386L168 387L167 386M483 386L484 387L483 386M610 386L611 387L610 386M47 387L47 391L48 391L47 387M59 387L60 388L59 387M171 387L172 388L171 387M479 387L480 388L479 387M608 387L609 388L608 387M175.667 388.333L176.333 388.667L175.667 388.333M474.667 388.333L475.333 388.667L474.667 388.333M606 388L607 389L606 388M62 389L63 390L62 389M180 389L181 390L180 389M604 389L605 390L604 389M184.667 390.333L185.333 390.667L184.667 390.333M464 390L465 391L464 390M602 390L603 391L602 390M190 391L191 392L190 391M458 391L459 392L458 391M600 391L601 392L600 391M67 392L68 393L67 392M195 392L196 393L195 392M452 392L453 393L452 392M598 392L599 393L598 392M69 393L70 394L69 393M201 393L202 394L201 393M446 393L447 394L446 393M596 393L597 394L596 393M206.667 394.333L207.333 394.667L206.667 394.333M439 394L440 395L439 394M213 395L214 396L213 395M433 395L434 396L433 395M74 396L75 397L74 396M220 396L221 397L220 396M425 396L426 397L425 396M76 397L77 398L76 397M227 397L228 398L227 397M78 398L79 399L78 398M235.667 398.333L236.333 398.667L235.667 398.333M408.667 398.333L409.333 398.667L408.667 398.333M585 398L586 399L585 398M80 399L81 400L80 399M244 399L245 400L244 399M82 400L83 401L82 400M255.667 400.333L256.333 400.667L255.667 400.333M386 400L386 401L390 401L386 400M580 400L581 401L580 400M84 401L85 402L84 401M267.667 401.333L268.333 401.667L267.667 401.333M374.667 401.333L375.333 401.667L374.667 401.333M86 402L87 403L86 402M283 402L283 403L288 403L283 402M354 402L354 403L360 403L354 402M88 403L89 404L88 403M570 404L571 405L570 404M650 404L650 414L651 414L650 404M46 405L46 408L47 408L46 405M97 407L98 408L97 407M562 407L563 408L562 407M559 408L560 409L559 408M102 409L103 410L102 409M556 409L557 410L556 409M553 410L554 411L553 410M107 411L108 412L107 411M550 411L551 412L550 411M110 412L111 413L110 412M547 412L548 413L547 412M112 413L113 414L112 413M544 413L545 414L544 413M115 414L116 415L115 414M118.667 415.333L119.333 415.667L118.667 415.333M537 415L538 416L537 415M121 416L122 417L121 416M124 417L125 418L124 417M530 417L531 418L530 417M526 418L527 419L526 418M45.3333 419.667L45.6667 420.333L45.3333 419.667M131 419L132 420L131 419M522 419L523 420L522 419M134 420L135 421L134 420M518 420L519 421L518 420M515 421L516 422L515 421M141 422L142 423L141 422M511 422L512 423L511 422M144.667 423.333L145.333 423.667L144.667 423.333M506 423L507 424L506 423M502 424L503 425L502 424M152 425L153 426L152 425M498 425L499 426L498 425M650 425L650 428L651 428L650 425M156 426L157 427L156 426M493 426L494 427L493 426M159 427L160 428L159 427M489 427L490 428L489 427M483.667 428.333L484.333 428.667L483.667 428.333M164 429L165 430L164 429M478.667 429.333L479.333 429.667L478.667 429.333M166 430L167 431L166 430M473 430L474 431L473 430M468 431L469 432L468 431M44 432L45 433L44 432M462 432L463 433L462 432M456 433L457 434L456 433M174 435L175 436L174 435M442.667 435.333L443.333 435.667L442.667 435.333M648 435L649 436L648 435M435.667 436.333L436.333 436.667L435.667 436.333M177 437L178 438L177 437M427 437L427 438L430 438L427 437M178 438L179 439L178 438M418.667 438.333L419.333 438.667L418.667 438.333M647 438L648 439L647 438M408 439L408 440L411 440L408 439M398 440L398 441L401 441L398 440M646 440L647 441L646 440M386.667 441.333L387.333 441.667L386.667 441.333M369 442L369 443L374 443L369 442M296.667 443.333L297.333 443.667L296.667 443.333M344 443L344 444L352 444L344 443M43 444L43 447L44 447L43 444M282 444L283 445L282 444M644 444L645 445L644 444M185 445L186 446L185 445M277 445L278 446L277 445M186 446L187 447L186 446M643 446L644 447L643 446M187 447L188 448L187 447M269 448L270 449L269 448M267 449L268 450L267 449M189 450L190 451L189 450M265 450L266 451L265 450M640 451L641 452L640 451M262 452L263 453L262 452M638 454L639 455L638 454M42 455L42 464L43 464L42 455M258 455L259 456L258 455M637 455L638 456L637 455M193 456L194 457L193 456M257 456L258 457L257 456M194 458L195 459L194 458M255 458L256 459L255 458M254 459L255 460L254 459M634 459L635 460L634 459M195 460L196 461L195 460M633 460L634 461L633 460M632 461L633 462L632 461M196 462L197 463L196 462M251 463L252 464L251 463M630 463L631 464L630 463M197 464L198 465L197 464M249 466L250 467L249 466M198 467L199 468L198 467M248 468L249 469L248 468M625 468L626 469L625 468M43 469L44 470L43 469M199 469L200 470L199 469M624 469L625 470L624 469M247 470L248 471L247 470M623 470L624 471L623 470M622 471L623 472L622 471M246 472L247 473L246 472M200 473L201 474L200 473M245 475L246 476L245 475M45 476L46 477L45 476M616 476L617 477L616 476M615 477L616 478L615 477M244 478L245 479L244 478M612 479L613 480L612 479M47 480L48 481L47 480M202.333 480.667L202.667 481.333L202.333 480.667M611 480L612 481L611 480M243 482L244 483L243 482M608 482L609 483L608 482M49 484L50 485L49 484M605 484L606 485L605 484M602 486L603 487L602 486M203.333 487.667L203.667 488.333L203.333 487.667M599 488L600 489L599 488M52 489L53 490L52 489M594 491L595 492L594 491M55 493L56 494L55 493M56 494L57 495L56 494M589 494L590 495L589 494M587 495L588 496L587 495M585 496L586 497L585 496M582 498L583 499L582 498M242 504L242 507L243 507L242 504M642 504L641 506L642 504z"/>
<path style="fill:#d18a36; stroke:none;" d="M643 504C626.296 517.256 608.184 528.459 589 537.742C566.992 548.39 544.934 555.998 529.289 576C520.863 586.774 515.487 600.387 514.17 614C512.876 627.368 515.88 645.647 499 650.711C475.141 657.87 476.977 621.119 467.532 610.04C456.192 596.738 435.284 594.213 419 592.286C368.926 586.358 317.412 599.168 267 596.961C213.028 594.597 157.91 588.942 107 569.576C85.2952 561.319 67.6216 547.755 47 538C45.8902 563.849 35.1331 595.271 48.8758 619C57.8751 634.539 74.2735 645.363 90 653.247C117.445 667.005 146.156 675.802 176 682.651C244.601 698.394 315.918 702.108 386 699.039C444.043 696.498 502.455 689.241 558 671.255C593.55 659.743 643.709 637.658 652.331 597C655.907 580.14 649.635 562.706 648.075 546C646.916 533.59 648.066 515.284 643 504z"/>
<path style="fill:#a2e3c0; stroke:none;" d="M644 505L644 510L645 510L644 505M68 506L69 507L68 506M565 506L566 507L565 506M69 507L70 508L69 507M563 507L564 508L563 507M561 508L562 509L561 508M637 508L638 509L637 508M203 509L204 510L203 509M73 510L74 511L73 510M556 510L557 511L556 510M243 511L244 512L243 511M554 511L555 512L554 511M633 511L634 512L633 511M76 512L77 513L76 512M551 512L552 513L551 512M549 513L550 514L549 513M630 513L631 514L630 513M79 514L80 515L79 514M546 514L547 515L546 514M202.333 515.667L202.667 516.333L202.333 515.667M244 515L245 516L244 515M544 515L545 516L544 515M541 516L542 517L541 516M626 516L627 517L626 516M538 517L539 518L538 517M245.333 518.667L245.667 519.333L245.333 518.667M623 518L624 519L623 518M87 519L88 520L87 519M533 519L534 520L533 519M201 520L202 521L201 520M530 520L531 521L530 520M645 520L645 523L646 523L645 520M527 521L528 522L527 521M618 521L619 522L618 521M92 522L93 523L92 522M524 522L525 523L524 522M200 523L201 524L200 523M521 523L522 524L521 523M615 523L616 524L615 523M96 524L97 525L96 524M247 524L248 525L247 524M518 524L519 525L518 524M98 525L99 526L98 525M515 525L516 526L515 525M512 526L513 527L512 526M610 526L611 527L610 526M102 527L103 528L102 527M509 527L510 528L509 527M105 528L106 529L105 528M198 528L199 529L198 528M249 528L250 529L249 528M505 528L506 529L505 528M107 529L108 530L107 529M502 529L503 530L502 529M605 529L606 530L605 529M197 530L198 531L197 530M250 530L251 531L250 530M498 530L499 531L498 530M603 530L604 531L603 530M646 530L646 533L647 533L646 530M112 531L113 532L112 531M495 531L496 532L495 531M601 531L602 532L601 531M114 532L115 533L114 532M196 532L197 533L196 532M251 532L252 533L251 532M491 532L492 533L491 532M599 532L600 533L599 532M117 533L118 534L117 533M487 533L488 534L487 533M597 533L598 534L597 533M120 534L121 535L120 534M195 534L196 535L195 534M483 534L484 535L483 534M595 534L596 535L595 534M122 535L123 536L122 535M253 535L254 536L253 535M593 535L594 536L593 535M475 536L476 537L475 536M591 536L592 537L591 536M47 537L48 538L47 537M129 537L130 538L129 537M471 537L472 538L471 537M589 537L590 538L589 537M48 538L49 539L48 538M132 538L133 539L132 538M192 538L193 539L192 538M255 538L256 539L255 538M466 538L467 539L466 538M587 538L588 539L587 538M191 539L192 540L191 539M462 539L463 540L462 539M585 539L586 540L585 539M51 540L52 541L51 540M139 540L140 541L139 540M190 540L191 541L190 540M457.667 540.333L458.333 540.667L457.667 540.333M647 540L648 541L647 540M143 541L144 542L143 541M189 541L190 542L189 541M46.3333 542.667L46.6667 543.333L46.3333 542.667M54 542L55 543L54 542M146 542L147 543L146 542M578 542L579 543L578 542M151 543L152 544L151 543M576 543L577 544L576 543M154.667 544.333L155.333 544.667L154.667 544.333M185 544L186 545L185 544M438 544L439 545L438 544M183 545L184 546L183 545M433 545L434 546L433 545M163.667 546.333L164.333 546.667L163.667 546.333M427 546L428 547L427 546M569 546L570 547L569 546M170 547L171 548L170 547M176 547L177 548L176 547M422 547L423 548L422 547M567 547L568 548L567 547M648 547L648 550L649 550L648 547M63 548L64 549L63 548M265 548L266 549L265 548M416 548L417 549L416 548M410 549L411 550L410 549M563 549L564 550L563 549M66 550L67 551L66 550M268 550L269 551L268 550M403.667 550.333L404.333 550.667L403.667 550.333M396.667 551.333L397.333 551.667L396.667 551.333M389.667 552.333L390.333 552.667L389.667 552.333M557 552L558 553L557 552M273 553L274 554L273 553M380 553L380 554L383 554L380 553M555 553L556 554L555 553M45.3333 554.667L45.6667 555.333L45.3333 554.667M73 554L74 555L73 554M371 554L371 555L374 555L371 554M553 554L554 555L553 554M75 555L76 556L75 555M278 555L279 556L278 555M362 555L362 556L365 556L362 555M649 555L650 556L649 555M281 556L282 557L281 556M349 556L349 557L352 557L349 556M550 556L551 557L550 556M285 557L286 558L285 557M334 557L334 558L338 558L334 557M549 557L550 558L549 557M80.6667 558.333L81.3333 558.667L80.6667 558.333M292 558L292 559L310 559L292 558M547 558L548 559L547 558M546 559L547 560L546 559M85 560L86 561L85 560M87 561L88 562L87 561M650.333 561.667L650.667 562.333L650.333 561.667M89 562L90 563L89 562M542 562L543 563L542 562M541 563L542 564L541 563M44 565L45 566L44 565M101 567L102 568L101 567M651.333 567.667L651.667 568.333L651.333 567.667M106 569L107 570L106 569M109 570L110 571L109 570M114 572L115 573L114 572M532 572L533 573L532 572M117 573L118 574L117 573M531 573L532 574L531 573M652.333 573.667L652.667 574.333L652.333 573.667M43 575L43 578L44 578L43 575M123 575L124 576L123 575M129 577L130 578L129 577M133 578L134 579L133 578M136.667 579.333L137.333 579.667L136.667 579.333M140 580L141 581L140 580M653 580L653 591L654 591L653 580M144.667 581.333L145.333 581.667L144.667 581.333M525 581L526 582L525 581M149 582L150 583L149 582M153 583L154 584L153 583M524 583L525 584L524 583M158 584L159 585L158 584M162.667 585.333L163.333 585.667L162.667 585.333M168 586L169 587L168 586M42 587L42 590L43 590L42 587M173 587L174 588L173 587M179 588L180 589L179 588M185.667 589.333L186.333 589.667L185.667 589.333M192 590L193 591L192 590M199.667 591.333L200.333 591.667L199.667 591.333M387 591L387 592L408 592L387 591M208 592L209 593L208 592M370 592L371 593L370 592M420.667 592.333L421.333 592.667L420.667 592.333M216.667 593.333L217.333 593.667L216.667 593.333M359 593L360 594L359 593M428 593L429 594L428 593M227.667 594.333L228.333 594.667L227.667 594.333M346.667 594.333L347.333 594.667L346.667 594.333M434 594L435 595L434 594M239 595L239 596L243 596L239 595M330 595L330 596L334 596L330 595M438 595L439 596L438 595M518 595L519 596L518 595M262 596L262 597L265 597L262 596M309.667 596.333L310.333 596.667L309.667 596.333M442 596L443 597L442 596M652 596L653 597L652 596M517 598L518 599L517 598M451 599L452 600L451 599M651 600L652 601L651 600M42.3333 601.667L42.6667 602.333L42.3333 601.667M516 601L517 602L516 601M459 603L460 604L459 603M650 603L651 604L650 603M462 605L463 606L462 605M515 605L516 606L515 605M648 608L649 609L648 608M514.333 610.667L514.667 611.333L514.333 610.667M647 610L648 611L647 610M468 611L469 612L468 611M45 612L46 613L45 612M469 612L470 613L469 612M46 614L47 615L46 614M644 615L645 616L644 615M47 616L48 617L47 616M48 618L49 619L48 618M642 618L643 619L642 618M50 621L51 622L50 621M640 621L641 622L640 621M474 624L475 625L474 624M53 625L54 626L53 625M634 628L635 629L634 628M513 629L513 633L514 633L513 629M631 631L632 632L631 631M475 632L476 633L475 632M626 635L627 636L626 635M64 636L65 637L64 636M476 636L477 637L476 636M625 636L626 637L625 636M65 637L66 638L65 637M511 639L512 640L511 639M621 639L622 640L621 639M69 640L70 641L69 640M510 641L511 642L510 641M617 642L618 643L617 642M73 643L74 644L73 643M509 643L510 644L509 643M614 644L615 645L614 644M76 645L77 646L76 645M78 646L79 647L78 646M611 646L612 647L611 646M81 648L82 649L81 648M606 649L607 650L606 649M489 650L490 651L489 650M500 650L501 651L500 650M494 651L494 652L497 652L494 651M603 651L604 652L603 651M88 652L89 653L88 652M601 652L602 653L601 652M90 653L91 654L90 653M599 653L600 654L599 653M92 654L93 655L92 654M597 654L598 655L597 654M94 655L95 656L94 655M595 655L596 656L595 655M96 656L97 657L96 656M593 656L594 657L593 656M98 657L99 658L98 657M591 657L592 658L591 657M100 658L101 659L100 658M589 658L590 659L589 658M587 659L588 660L587 659M105 660L106 661L105 660M107 661L108 662L107 661M580 662L581 663L580 662M575 664L576 665L575 664M117 665L118 666L117 665M570 666L571 667L570 666M122 667L123 668L122 667M125 668L126 669L125 668M565 668L566 669L565 668M562 669L563 670L562 669M131 670L132 671L131 670M134 671L135 672L134 671M137 672L138 673L137 672M553 672L554 673L553 672M140 673L141 674L140 673M550 673L551 674L550 673M143 674L144 675L143 674M547 674L548 675L547 674M147 675L148 676L147 675M544 675L545 676L544 675M150 676L151 677L150 676M540 676L541 677L540 676M154 677L155 678L154 677M536 677L537 678L536 677M157.667 678.333L158.333 678.667L157.667 678.333M533 678L534 679L533 678M529 679L530 680L529 679M166 680L167 681L166 680M525 680L526 681L525 680M170 681L171 682L170 681M521 681L522 682L521 681M174.667 682.333L175.333 682.667L174.667 682.333M516 682L517 683L516 682M179 683L180 684L179 683M512 683L513 684L512 683M183 684L184 685L183 684M507.667 684.333L508.333 684.667L507.667 684.333M503 685L504 686L503 685M194 686L195 687L194 686M497.667 686.333L498.333 686.667L497.667 686.333M199 687L200 688L199 687M493 687L494 688L493 687M204.667 688.333L205.333 688.667L204.667 688.333M487 688L488 689L487 688M210 689L211 690L210 689M482 689L483 690L482 689M216.667 690.333L217.333 690.667L216.667 690.333M475.667 690.333L476.333 690.667L475.667 690.333M222.667 691.333L223.333 691.667L222.667 691.333M469 691L470 692L469 691M229.667 692.333L230.333 692.667L229.667 692.333M462 692L463 693L462 692M237 693L238 694L237 693M454.667 693.333L455.333 693.667L454.667 693.333M245.667 694.333L246.333 694.667L245.667 694.333M446.667 694.333L447.333 694.667L446.667 694.333M253 695L253 696L256 696L253 695M437.667 695.333L438.333 695.667L437.667 695.333M263 696L263 697L267 697L263 696M427.667 696.333L428.333 696.667L427.667 696.333M276.667 697.333L277.333 697.667L276.667 697.333M415 697L415 698L418 698L415 697M288 698L288 699L296 699L288 698M400 698L400 699L404 699L400 698z"/>
</svg>
