<?xml version="1.0" standalone="no"?>
<!DOCTYPE svg PUBLIC "-//W3C//DTD SVG 20010904//EN"
 "http://www.w3.org/TR/2001/REC-SVG-20010904/DTD/svg10.dtd">
<svg version="1.0" xmlns="http://www.w3.org/2000/svg"
 width="512.000000pt" height="512.000000pt" viewBox="0 0 512.000000 512.000000"
 preserveAspectRatio="xMidYMid meet">

<g transform="translate(0.000000,512.000000) scale(0.100000,-0.100000)"
fill="#000000" stroke="none">
<path d="M3490 5109 c-219 -25 -454 -111 -637 -232 -112 -74 -208 -165 -728
-686 l-490 -491 1033 -1033 1032 -1032 539 540 c525 527 599 609 682 750 287
494 256 1121 -78 1588 -74 103 -227 256 -330 330 -297 212 -661 307 -1023 266z"/>
<path d="M879 2943 c-523 -524 -598 -607 -680 -748 -287 -494 -256 -1121 78
-1588 74 -103 227 -256 330 -330 441 -315 1013 -363 1500 -124 118 57 211 120
314 211 46 41 304 295 574 565 l490 491 -1030 1030 c-566 567 -1032 1030
-1035 1030 -3 0 -247 -242 -541 -537z"/>
</g>
</svg>
