<?xml version="1.0" standalone="no"?>
<!DOCTYPE svg PUBLIC "-//W3C//DTD SVG 20010904//EN"
 "http://www.w3.org/TR/2001/REC-SVG-20010904/DTD/svg10.dtd">
<svg version="1.0" xmlns="http://www.w3.org/2000/svg"
 width="512.000000pt" height="512.000000pt" viewBox="0 0 512.000000 512.000000"
 preserveAspectRatio="xMidYMid meet">

<g transform="translate(0.000000,512.000000) scale(0.100000,-0.100000)"
fill="#000000" stroke="none">
<path d="M985 5095 l-25 -24 0 -466 c0 -447 -1 -465 -19 -465 -41 0 -164 -74
-225 -134 -116 -115 -156 -228 -156 -441 0 -194 31 -304 112 -407 l30 -38 -54
0 c-272 0 -514 -200 -558 -460 -7 -44 -10 -244 -8 -610 l3 -545 32 -67 c42
-90 100 -150 186 -193 38 -19 78 -35 87 -35 12 0 19 -11 24 -37 9 -60 59 -153
111 -211 26 -29 46 -54 44 -56 -2 -2 -44 -24 -94 -49 -274 -141 -450 -409
-472 -721 -6 -81 -5 -85 20 -110 33 -33 79 -34 111 -3 19 19 24 38 29 110 14
177 83 324 211 453 90 90 175 143 294 182 67 22 94 26 212 26 118 0 145 -4
212 -26 119 -39 204 -92 294 -182 128 -129 197 -276 211 -453 7 -100 28 -133
83 -133 55 0 76 33 83 133 14 177 83 324 211 453 90 90 175 143 294 182 67 22
94 26 212 26 118 0 145 -4 212 -26 119 -39 204 -92 294 -182 128 -129 197
-276 211 -453 7 -100 28 -133 83 -133 55 0 76 33 83 133 14 177 83 324 211
453 90 90 175 143 294 182 67 22 94 26 212 26 118 0 145 -4 212 -26 119 -39
204 -92 294 -182 128 -129 197 -276 211 -453 7 -100 28 -133 83 -133 49 0 80
38 80 97 -1 309 -203 628 -488 768 -42 20 -79 39 -81 41 -2 2 17 26 42 53 57
61 94 134 113 220 19 90 18 301 -1 376 -67 256 -329 415 -578 350 -180 -47
-320 -193 -357 -372 -8 -37 -11 -111 -7 -208 6 -201 29 -266 130 -372 23 -24
39 -44 36 -47 -2 -2 -40 -22 -85 -44 -152 -76 -279 -196 -369 -350 l-37 -64
-28 53 c-76 145 -226 289 -377 363 -43 21 -80 40 -82 42 -2 2 17 26 42 53 57
61 94 134 113 220 19 90 18 301 -1 376 -67 256 -329 415 -578 350 -180 -47
-320 -193 -357 -372 -8 -37 -11 -111 -7 -208 6 -201 29 -266 130 -372 23 -24
39 -44 36 -46 -2 -2 -45 -25 -95 -51 -104 -53 -202 -130 -268 -211 l-46 -57 0
826 0 826 1655 0 1656 0 24 25 25 24 0 1391 0 1391 -25 24 -24 25 -2031 0
-2031 0 -24 -25z m3975 -1415 l0 -1280 -1600 0 -1600 0 0 80 0 80 405 0 405 0
29 28 c40 36 488 595 548 684 47 69 48 72 48 147 -1 54 -6 86 -19 111 -23 44
-73 97 -108 116 l-28 15 0 545 0 545 -25 24 c-15 16 -36 25 -55 25 -19 0 -40
-9 -55 -25 l-25 -24 0 -539 0 -540 -37 -7 c-99 -18 -170 -84 -397 -362 l-149
-183 -418 0 -419 0 34 48 c50 70 76 127 92 201 19 89 18 308 -1 390 -46 195
-196 342 -396 389 l-69 16 0 398 0 398 1920 0 1920 0 0 -1280z m-3734 286 c77
-35 145 -103 181 -180 27 -59 28 -66 28 -226 0 -160 -1 -167 -28 -226 -36 -77
-104 -145 -182 -181 -51 -24 -73 -28 -145 -28 -72 0 -94 4 -145 28 -78 36
-146 104 -182 181 -27 59 -28 66 -28 226 0 160 1 167 28 225 86 183 293 263
473 181z m1785 -476 c25 -25 30 -36 27 -71 -3 -38 -28 -73 -263 -370 l-260
-328 -431 0 c-410 -1 -433 -2 -455 -20 l-24 -19 -5 -1046 -5 -1045 -52 63
c-63 77 -173 162 -273 212 -41 20 -77 38 -79 40 -2 2 17 26 42 53 57 61 94
134 113 220 19 90 18 301 -1 376 -63 240 -300 397 -537 357 -79 -14 -163 -48
-215 -88 l-33 -25 0 396 0 396 -25 24 c-32 33 -78 33 -110 0 l-25 -24 0 -606
c0 -333 -2 -605 -5 -605 -4 0 -19 7 -34 15 -43 22 -97 90 -110 138 -9 30 -11
192 -9 582 l3 540 32 67 c44 93 100 151 191 196 l76 37 918 5 c798 4 919 7
931 20 8 8 76 92 152 185 260 320 299 355 393 355 35 0 49 -6 73 -30z m-2000
-1759 c69 -33 112 -74 150 -143 l34 -63 0 -165 0 -165 -34 -63 c-38 -70 -70
-101 -145 -140 -43 -22 -64 -26 -136 -26 -78 -1 -90 2 -148 33 -69 37 -109 79
-144 151 -21 41 -23 59 -23 210 0 155 1 168 25 215 42 86 123 152 215 176 49
13 158 2 206 -20z m1600 0 c69 -33 112 -74 150 -143 l34 -63 0 -165 0 -165
-34 -63 c-38 -70 -70 -101 -145 -140 -43 -22 -64 -26 -136 -26 -78 -1 -90 2
-148 33 -69 37 -109 79 -144 151 -21 41 -23 59 -23 210 0 155 1 168 25 215 42
86 123 152 215 176 49 13 158 2 206 -20z m1600 0 c69 -33 112 -74 150 -143
l34 -63 0 -165 0 -165 -34 -63 c-38 -70 -70 -101 -145 -140 -43 -22 -64 -26
-136 -26 -78 -1 -90 2 -148 33 -69 37 -109 79 -144 151 -21 41 -23 59 -23 210
0 155 1 168 25 215 42 86 123 152 215 176 49 13 158 2 206 -20z"/>
<path d="M425 295 c-24 -23 -25 -31 -25 -135 0 -104 1 -112 25 -135 15 -16 36
-25 55 -25 19 0 40 9 55 25 24 23 25 31 25 135 0 104 -1 112 -25 135 -15 16
-36 25 -55 25 -19 0 -40 -9 -55 -25z"/>
<path d="M1225 295 c-24 -23 -25 -31 -25 -135 0 -104 1 -112 25 -135 15 -16
36 -25 55 -25 19 0 40 9 55 25 24 23 25 31 25 135 0 104 -1 112 -25 135 -15
16 -36 25 -55 25 -19 0 -40 -9 -55 -25z"/>
<path d="M2025 295 c-24 -23 -25 -31 -25 -135 0 -104 1 -112 25 -135 15 -16
36 -25 55 -25 19 0 40 9 55 25 24 23 25 31 25 135 0 104 -1 112 -25 135 -15
16 -36 25 -55 25 -19 0 -40 -9 -55 -25z"/>
<path d="M2825 295 c-24 -23 -25 -31 -25 -135 0 -104 1 -112 25 -135 15 -16
36 -25 55 -25 19 0 40 9 55 25 24 23 25 31 25 135 0 104 -1 112 -25 135 -15
16 -36 25 -55 25 -19 0 -40 -9 -55 -25z"/>
<path d="M3625 295 c-24 -23 -25 -31 -25 -135 0 -104 1 -112 25 -135 15 -16
36 -25 55 -25 19 0 40 9 55 25 24 23 25 31 25 135 0 104 -1 112 -25 135 -15
16 -36 25 -55 25 -19 0 -40 -9 -55 -25z"/>
<path d="M4425 295 c-24 -23 -25 -31 -25 -135 0 -104 1 -112 25 -135 15 -16
36 -25 55 -25 19 0 40 9 55 25 24 23 25 31 25 135 0 104 -1 112 -25 135 -15
16 -36 25 -55 25 -19 0 -40 -9 -55 -25z"/>
</g>
</svg>
