<?xml version="1.0" standalone="no"?>
<!DOCTYPE svg PUBLIC "-//W3C//DTD SVG 20010904//EN"
 "http://www.w3.org/TR/2001/REC-SVG-20010904/DTD/svg10.dtd">
<svg version="1.0" xmlns="http://www.w3.org/2000/svg"
 width="512.000000pt" height="512.000000pt" viewBox="0 0 512.000000 512.000000"
 preserveAspectRatio="xMidYMid meet">

<g transform="translate(0.000000,512.000000) scale(0.100000,-0.100000)"
fill="#000000" stroke="none">
<path d="M1040 4641 l0 -398 83 -5 c245 -16 440 -168 529 -415 16 -46 22 -90
25 -215 6 -173 -4 -258 -42 -350 l-23 -58 323 0 323 0 145 178 c220 269 301
339 435 372 l42 11 0 495 0 495 25 24 c15 16 36 25 55 25 19 0 40 -9 55 -25
l25 -24 0 -503 0 -503 45 -19 c61 -25 131 -95 163 -164 23 -48 27 -71 27 -142
0 -126 4 -121 -412 -637 l-244 -303 -389 0 -390 0 0 -80 0 -80 1600 0 1600 0
0 1360 0 1360 -2000 0 -2000 0 0 -399z"/>
<path d="M973 4065 c-166 -45 -287 -171 -322 -333 -14 -68 -14 -276 0 -344 34
-160 158 -289 322 -333 49 -13 40 -14 -168 -14 -239 -1 -292 -9 -387 -57 -116
-59 -220 -196 -248 -327 -7 -36 -10 -227 -8 -593 l3 -539 27 -57 c24 -52 99
-138 119 -138 5 0 9 37 9 83 0 101 20 198 54 265 l26 51 0 431 0 431 25 24
c32 33 78 33 110 0 l25 -24 0 -345 0 -345 43 24 c23 14 71 35 107 47 86 30
248 32 330 4 187 -63 312 -188 376 -376 16 -46 19 -85 19 -235 0 -125 -4 -195
-14 -230 -15 -52 -58 -146 -84 -179 -14 -19 -9 -23 72 -77 80 -53 197 -163
249 -234 l21 -30 1 1013 0 1012 433 0 433 0 250 313 c299 373 314 393 321 445
21 157 -161 256 -310 168 -57 -33 -163 -146 -332 -354 l-140 -172 -600 1
c-499 1 -592 3 -550 13 158 39 278 160 320 323 18 69 20 278 4 355 -51 240
-302 396 -536 333z"/>
<path d="M786 1830 c-63 -16 -153 -70 -197 -117 -22 -24 -55 -74 -72 -111
l-32 -67 0 -175 0 -175 32 -67 c17 -37 50 -87 72 -111 45 -48 136 -102 197
-115 l39 -9 -40 -7 c-147 -27 -241 -62 -338 -126 -210 -137 -340 -353 -364
-604 l-6 -66 162 0 161 0 0 95 c0 88 2 98 25 120 32 33 78 33 110 0 23 -22 25
-32 25 -120 l0 -95 320 0 320 0 0 95 c0 88 2 98 25 120 32 33 78 33 110 0 23
-22 25 -32 25 -120 l0 -95 320 0 320 0 0 95 c0 88 2 98 25 120 32 33 78 33
110 0 23 -22 25 -32 25 -120 l0 -95 320 0 320 0 0 95 c0 88 2 98 25 120 32 33
78 33 110 0 23 -22 25 -32 25 -120 l0 -95 320 0 320 0 0 95 c0 88 2 98 25 120
32 33 78 33 110 0 23 -22 25 -32 25 -120 l0 -95 320 0 320 0 0 95 c0 88 2 98
25 120 32 33 78 33 110 0 23 -22 25 -32 25 -120 l0 -95 161 0 162 0 -6 68
c-24 248 -155 466 -364 602 -97 64 -191 99 -338 126 l-40 7 39 9 c61 13 152
67 197 115 22 24 55 74 72 111 l32 67 0 175 0 175 -32 67 c-44 93 -100 151
-191 196 -72 35 -81 37 -172 37 -91 0 -100 -2 -172 -37 -91 -45 -147 -103
-191 -196 l-32 -67 0 -175 0 -175 32 -67 c17 -37 50 -87 72 -111 45 -48 136
-102 197 -115 l39 -9 -40 -7 c-147 -27 -241 -62 -338 -126 -170 -110 -294
-282 -341 -471 -9 -36 -16 -75 -16 -87 0 -12 -4 -22 -10 -22 -5 0 -10 10 -10
23 0 12 -6 47 -14 78 -53 203 -170 367 -343 479 -97 64 -191 99 -338 126 l-40
7 39 9 c61 13 152 67 197 115 22 24 55 74 72 111 l32 67 0 176 0 175 -37 76
c-45 91 -103 147 -196 191 -61 29 -76 32 -162 32 -86 0 -101 -3 -162 -32 -93
-44 -151 -100 -196 -191 l-37 -76 0 -175 0 -176 32 -67 c17 -37 50 -87 72
-111 45 -48 136 -102 197 -115 l39 -9 -40 -7 c-147 -27 -241 -62 -338 -126
-170 -110 -294 -282 -341 -471 -9 -36 -16 -75 -16 -87 0 -12 -4 -22 -10 -22
-5 0 -10 10 -10 23 0 12 -6 47 -14 78 -53 203 -170 367 -343 479 -97 64 -191
99 -338 126 l-40 7 39 9 c61 13 152 67 197 115 22 24 55 74 72 111 l32 67 0
176 0 175 -37 76 c-68 136 -188 217 -336 224 -42 2 -94 -1 -116 -6z"/>
</g>
</svg>
