<?xml version="1.0" standalone="no"?>
<!DOCTYPE svg PUBLIC "-//W3C//DTD SVG 20010904//EN"
 "http://www.w3.org/TR/2001/REC-SVG-20010904/DTD/svg10.dtd">
<svg version="1.0" xmlns="http://www.w3.org/2000/svg"
 width="512.000000pt" height="512.000000pt" viewBox="0 0 512.000000 512.000000"
 preserveAspectRatio="xMidYMid meet">

<g transform="translate(0.000000,512.000000) scale(0.100000,-0.100000)"
fill="#000000" stroke="none">
<path d="M521 4144 c-169 -45 -301 -180 -346 -351 -23 -87 -22 -2380 0 -2468
47 -178 197 -321 374 -355 74 -14 2348 -14 2422 0 121 23 257 116 316 217 64
110 67 124 73 430 l5 282 454 -304 c251 -169 478 -314 507 -325 116 -43 255
-33 368 28 115 61 219 201 251 333 22 96 22 1762 0 1858 -59 248 -301 421
-532 381 -38 -6 -90 -22 -118 -34 -27 -13 -248 -157 -490 -319 l-440 -296 -5
282 c-5 256 -8 287 -27 334 -65 162 -181 267 -340 308 -84 22 -2390 21 -2472
-1z m2423 -318 c18 -8 46 -31 62 -52 l29 -37 0 -1178 c0 -1174 0 -1178 -21
-1205 -11 -15 -33 -37 -48 -48 -27 -21 -31 -21 -1205 -21 l-1178 0 -37 29
c-70 53 -66 -26 -66 1245 0 790 3 1159 11 1178 14 37 47 73 84 89 46 20 2321
20 2369 0z m1585 -282 c44 -17 81 -60 99 -113 9 -25 12 -260 12 -871 0 -611
-3 -846 -12 -871 -28 -84 -113 -142 -177 -123 -17 5 -268 169 -560 364 l-530
355 0 275 0 275 530 355 c292 195 540 358 552 362 35 10 44 9 86 -8z"/>
</g>
</svg>
